# xmcd
#
# Track frame offsets:
#	150
#	11250
#	25200
#	35700
#	47825
#	58950
#	68425
#	78240
#	90425
#	101462
#	113700
#	123225
#	134325
#	147675
#	157275
#	169350
#
# Disc length: 2429 seconds
#
# Revision: 3
# Processed by: cddbd v1.5.2PL0 Copyright (c) Steve Scherf et al.
# Submitted via: EasyCDDAExtractor 15.2.5.1
#
DISCID=da097b10
DTITLE=Various Artist - More Country Gold
DYEAR=1992
DGENRE=Country
TTITLE0=Barbie Benton - Queen Of Country
TTITLE1=Barbara Fairchild - Teddy Bear Song
TTITLE2=The Statler Brothers - Flowers On The Wall
TTITLE3=Don Gibson - Just One Time
TTITLE4=Floyd Cramer - Last Date
TTITLE5=Charlie Rich - Lonely Weekends
TTITLE6=Johnny Bush and Willie Nelson - Together Again
TTITLE7=Freddie Hart - The Keys In The Mailbox
TTITLE8=Billy Grammar - Gotta Travel On
TTITLE9=Johnny Cash and June Carter - Jackson
TTITLE10=Hank Snow - I'm Movin' On
TTITLE11=Bobby Bare - Detroit City
TTITLE12=Leroy Van Dyke - The Auctioneer
TTITLE13=Hank Snow - The Wreck Of The Old 97
TTITLE14=Charlie Rich - I Washed My Hands In Muddy Water
TTITLE15=Don Williams - Where Do I Go?
EXTD=
EXTT0=
EXTT1=
EXTT2=
EXTT3=
EXTT4=
EXTT5=
EXTT6=
EXTT7=
EXTT8=
EXTT9=
EXTT10=
EXTT11=
EXTT12=
EXTT13=
EXTT14=
EXTT15=
PLAYORDER=
